<svg width="36" height="36" viewBox="0 0 36 36" fill="none" xmlns="http://www.w3.org/2000/svg">
<path d="M31.62 10.5C31.3608 10.0509 30.9897 9.67669 30.5428 9.4138C30.0958 9.15091 29.5884 9.00834 29.07 8.99999H9.87L9 5.60999C8.9121 5.28275 8.71599 4.99491 8.44362 4.79335C8.17124 4.59179 7.83864 4.48839 7.5 4.49999H4.5C4.10218 4.49999 3.72064 4.65803 3.43934 4.93933C3.15804 5.22064 3 5.60217 3 5.99999C3 6.39782 3.15804 6.77935 3.43934 7.06065C3.72064 7.34196 4.10218 7.49999 4.5 7.49999H6.36L10.5 22.89C10.5879 23.2172 10.784 23.5051 11.0564 23.7066C11.3288 23.9082 11.6614 24.0116 12 24H25.5C25.777 23.9992 26.0484 23.9216 26.284 23.776C26.5196 23.6304 26.7104 23.4224 26.835 23.175L31.755 13.335C31.9682 12.888 32.0675 12.3952 32.044 11.9005C32.0204 11.4058 31.8748 10.9247 31.62 10.5Z" fill="#FF5A11"/>
<path d="M11.25 31.5C12.4926 31.5 13.5 30.4926 13.5 29.25C13.5 28.0074 12.4926 27 11.25 27C10.0074 27 9 28.0074 9 29.25C9 30.4926 10.0074 31.5 11.25 31.5Z" fill="#FF5A11"/>
<path d="M26.25 31.5C27.4926 31.5 28.5 30.4926 28.5 29.25C28.5 28.0074 27.4926 27 26.25 27C25.0074 27 24 28.0074 24 29.25C24 30.4926 25.0074 31.5 26.25 31.5Z" fill="#FF5A11"/>
</svg>
