<svg width="50" height="50" viewBox="0 0 50 50" fill="none" xmlns="http://www.w3.org/2000/svg">
<path d="M10.5313 15.4102C10.2383 13.1914 9.74221 9.28125 10.0703 7.12891C10.3985 4.97657 11.2578 2.99219 13.0508 2.20703C14.6016 1.53125 16.5352 2.2461 17.6524 3.91797C18.2891 4.8711 18.6524 6.04688 18.961 7.21094C19.4883 9.21094 19.9922 11.9453 20.2461 14.0039" stroke="#A6461C" stroke-width="3" stroke-miterlimit="10"/>
<path d="M11.9961 45.5625L2.55469 41.6289L4.74609 31.9648L4.27734 9.94141L28.168 7.13672V9.22266L33.8516 9.94141L11.9961 45.5625Z" fill="#BC4F1F"/>
<path d="M35.8789 41.9688L11.9922 45.5859L9.96094 32.9375V13.5547L33.8516 9.94141V29.3203L35.8789 41.9688Z" fill="#FF5A11"/>
<path d="M9.96094 13.5547V11.375L4.27734 9.94141L28.2148 7.28516L28.9805 8.98047L33.8516 9.94141L9.96094 13.5547Z" fill="#262626"/>
<path d="M2.55469 41.6289C2.71875 41.6289 8.21094 37.2734 8.21094 37.2734L11.9922 45.5859L11.1797 32.332L9.94922 13.5547L8.35156 33.8477L2.55469 41.6289Z" fill="#A6461C"/>
<path d="M28.1445 7.53516L28.7227 8.87109L28.7969 9.04688L28.9805 9.09375L31.8906 9.83984L10.3516 13.1016V11.0703L10.0547 10.9961L6.42969 10.082L28.1445 7.53516ZM28.3906 7.11328L4.28125 9.94141L9.96484 11.375V13.5586L33.8516 9.94141L29.082 8.71484L28.3906 7.11328Z" fill="#BC4F1F"/>
<path d="M17.168 15.0195C16.875 12.8047 13.8242 4.29687 19.6641 3.21094C24.0781 2.39062 26.0273 11.793 26.2852 13.8555" stroke="#FF5A11" stroke-width="3" stroke-miterlimit="10"/>
<path d="M17.8945 15.6367C17.5547 14.4922 17.1992 12.1797 17.1836 12.0781L18.3398 11.9023C18.3437 11.9258 18.7578 14.2852 19.2109 15.3906L17.8945 15.6367ZM27.0039 14.25C26.6641 13.1055 26.3086 10.793 26.293 10.6914L27.4492 10.5156C27.4531 10.5391 27.9336 12.9375 28.3359 14.0078L27.0039 14.25ZM18.2969 44.6328L21.5781 38.9492L20.0117 23.7969L33.125 21.2461L26.0938 43.4687L18.2969 44.6328Z" fill="#A6461C"/>
<path d="M28.543 22.2852C28.543 22.2852 27.0664 14.4453 31.9844 14.9649C34.6602 15.2461 34.5508 21.4688 34.5508 21.4688" stroke="#C8880F" stroke-width="3" stroke-miterlimit="10"/>
<path d="M29.0859 48.4336L21.832 45.3984L23.5195 37.9687L23.1602 21.0391L41.5195 18.8828V20.4883L45.8867 21.0391L29.0859 48.4336Z" fill="#DF9910"/>
<path d="M47.4453 45.6562L29.0859 48.4375L27.5273 38.7148V23.8203L45.8867 21.0391V35.9375L47.4453 45.6562Z" fill="#FFB423"/>
<path d="M27.5273 23.8203L26.0586 22.6953L23.1602 21.0391L41.5195 18.8828L43.1875 19.9336L45.8867 21.0391L27.5273 23.8203Z" fill="#262626"/>
<path d="M41.4492 19.2852L44.5938 20.8359L27.6094 23.4062L24.293 21.2969L41.4492 19.2852ZM41.5195 18.8828L23.1602 21.0391L27.5273 23.8203L45.8867 21.0391L41.5195 18.8828Z" fill="#DF9910"/>
<path d="M33.7344 25.3164C33.4727 24.4414 33.2031 22.6641 33.1914 22.5898L34.2227 22.457C34.2266 22.4766 34.4883 24.2656 34.7305 25.0898L33.7344 25.3164ZM40.7227 24.2422C40.4609 23.3672 40.1914 21.5898 40.1797 21.5156L41.1992 21.3867C41.2031 21.4062 41.4141 23.25 41.6562 24.0742L40.7227 24.2422Z" fill="#DF9910"/>
<path d="M33.1563 25.3555C32.9297 23.6523 30.6094 16.4726 34.9844 15.8672C38.4024 15.3945 39.875 22.4648 40.0742 24.0469" stroke="#FFB423" stroke-width="3" stroke-miterlimit="10"/>
<path d="M21.832 45.3984L25.5391 42.2578L29.0859 48.4375L27.5352 38.7734L27.5508 23.8672L27.1133 23.6875L25.7305 38.8398L21.832 45.3984Z" fill="#C8880F"/>
</svg>
