<svg width="15" height="14" viewBox="0 0 15 14" fill="none" xmlns="http://www.w3.org/2000/svg">
<path fill-rule="evenodd" clip-rule="evenodd" d="M10.3833 8.93266L13.97 12.5193C14.0961 12.6455 14.1668 12.8165 14.1668 12.9949C14.1667 13.1732 14.0958 13.3443 13.9697 13.4703C13.8435 13.5964 13.6724 13.6672 13.4941 13.6671C13.3157 13.6671 13.1447 13.5961 13.0187 13.47L9.43199 9.88333C8.3598 10.7138 7.01151 11.1046 5.66141 10.9762C4.3113 10.8479 3.06081 10.21 2.16431 9.1924C1.26781 8.17479 0.792648 6.85387 0.835489 5.49836C0.87833 4.14285 1.43595 2.85457 2.39492 1.8956C3.35389 0.936626 4.64217 0.379001 5.99768 0.33616C7.3532 0.293319 8.67412 0.768481 9.69173 1.66498C10.7093 2.56148 11.3472 3.81198 11.4756 5.16208C11.6039 6.51218 11.2131 7.86047 10.3827 8.93266H10.3833ZM6.16665 9.66666C7.22752 9.66666 8.24494 9.24523 8.99508 8.49509C9.74523 7.74494 10.1667 6.72753 10.1667 5.66666C10.1667 4.60579 9.74523 3.58838 8.99508 2.83823C8.24494 2.08809 7.22752 1.66666 6.16665 1.66666C5.10579 1.66666 4.08837 2.08809 3.33823 2.83823C2.58808 3.58838 2.16665 4.60579 2.16665 5.66666C2.16665 6.72753 2.58808 7.74494 3.33823 8.49509C4.08837 9.24523 5.10579 9.66666 6.16665 9.66666Z" fill="#9E9E9E"/>
</svg>
