<svg width="17" height="16" viewBox="0 0 17 16" fill="none" xmlns="http://www.w3.org/2000/svg">
<path d="M15.8 3.7C13.4 -2.38419e-07 8.50002 -1.1 4.70002 1.2C1.00002 3.5 -0.199976 8.5 2.20002 12.2L2.40002 12.5L1.60002 15.5L4.60002 14.7L4.90002 14.9C6.20002 15.6 7.60002 16 9.00002 16C10.5 16 12 15.6 13.3 14.8C17 12.4 18.1 7.5 15.8 3.7ZM13.7 11.4C13.3 12 12.8 12.4 12.1 12.5C11.7 12.5 11.2 12.7 9.20002 11.9C7.50002 11.1 6.10002 9.8 5.10002 8.3C4.50002 7.6 4.20002 6.7 4.10002 5.8C4.10002 5 4.40002 4.3 4.90002 3.8C5.10002 3.6 5.30002 3.5 5.50002 3.5H6.00002C6.20002 3.5 6.40002 3.5 6.50002 3.9C6.70002 4.4 7.20002 5.6 7.20002 5.7C7.30002 5.8 7.30002 6 7.20002 6.1C7.30002 6.3 7.20002 6.5 7.10002 6.6C7.00002 6.7 6.90002 6.9 6.80002 7C6.60002 7.1 6.50002 7.3 6.60002 7.5C7.00002 8.1 7.50002 8.7 8.00002 9.2C8.60002 9.7 9.20002 10.1 9.90002 10.4C10.1 10.5 10.3 10.5 10.4 10.3C10.5 10.1 11 9.6 11.2 9.4C11.4 9.2 11.5 9.2 11.7 9.3L13.3 10.1C13.5 10.2 13.7 10.3 13.8 10.4C13.9 10.7 13.9 11.1 13.7 11.4Z" fill="#F6F6EF"/>
</svg>
